<svg version="1.1" xmlns="http://www.w3.org/2000/svg" xmlns:xlink="http://www.w3.org/1999/xlink" enable-background="new 0 0 470 470" width="470" height="470"><rect id="backgroundrect" width="100%" height="100%" x="0" y="0" fill="none" stroke="none"/>
  
<g class="currentLayer" style=""><title>Layer 1</title><g id="svg_1" class="" fill="#e8a451" fill-opacity="1">
    <path d="m465.1149969100952,140.23672485351562 c-3.3420000076293945,-3.6089999675750732 -8.102999687194824,-5.883999824523926 -13.39799976348877,-5.883999824523926 h-44.823001861572266 v-124.58000183105469 c0,-4.14300012588501 -3.3570001125335693,-7.5 -7.5,-7.5 h-328.78900146484375 c-4.14300012588501,0 -7.5,3.3570001125335693 -7.5,7.5 v124.5790023803711 h-44.823001861572266 c-5.294000148773193,0 -10.055000305175781,2.2760000228881836 -13.397000312805176,5.883999824523926 c-3.0209999084472656,3.263000011444092 -4.885000228881836,7.611999988555908 -4.885000228881836,12.39799976348877 v301.3559875488281 c0,10.081999778747559 8.201000213623047,18.283000946044922 18.281999588012695,18.283000946044922 h433.4360046386719 c10.081000328063965,0 18.281999588012695,-8.201000213623047 18.281999588012695,-18.281999588012695 v-301.35699462890625 c5.684339853201728e-14,-4.785999774932861 -1.8639999628067017,-9.135000228881836 -4.885000228881836,-12.397000312805176 zm-394.510009765625,31.52400016784668 c4.14300012588501,0 7.5,-3.3570001125335693 7.5,-7.5 v-146.98800659179688 h313.78900146484375 v146.98800659179688 c0,4.14300012588501 3.3570001125335693,7.5 7.5,7.5 s7.5,-3.3570001125335693 7.5,-7.5 v-14.909000396728516 h38.00699996948242 l-201.4600067138672,209.81399536132812 c-2.256999969482422,2.3510000705718994 -5.255000114440918,3.6459999084472656 -8.440999984741211,3.6459999084472656 s-6.184999942779541,-1.2949999570846558 -8.440999984741211,-3.6459999084472656 l-201.46099853515625,-209.81399536132812 h38.00699996948242 v14.909000396728516 c0,4.14300012588501 3.3580000400543213,7.5 7.5,7.5 zm381.1130065917969,285.5119934082031 h-433.4360046386719 c-1.7790000438690186,0 -3.2820000648498535,-1.503000020980835 -3.2820000648498535,-3.2820000648498535 v-293.49798583984375 l137.13400268554688,142.82000732421875 l-120.66500091552734,125.66899871826172 c-2.868000030517578,2.986999988555908 -2.7720000743865967,7.735000133514404 0.2160000056028366,10.604000091552734 c1.4539999961853027,1.3960000276565552 3.325000047683716,2.0899999141693115 5.192999839782715,2.0899999141693115 c1.9709999561309814,0 3.937999963760376,-0.7710000276565552 5.410999774932861,-2.305999994277954 l120.24299621582031,-125.22899627685547 l53.207000732421875,55.41299819946289 c5.111999988555908,5.323999881744385 11.95300006866455,8.256999969482422 19.261999130249023,8.256999969482422 s14.14900016784668,-2.933000087738037 19.261999130249023,-8.256999969482422 l53.207000732421875,-55.41299819946289 l47.03099822998047,48.97999954223633 c1.4730000495910645,1.534000039100647 3.440000057220459,2.305999994277954 5.410999774932861,2.305999994277954 c1.8680000305175781,0 3.739000082015991,-0.6940000057220459 5.192999839782715,-2.0899999141693115 c2.98799991607666,-2.86899995803833 3.0840001106262207,-7.617000102996826 0.2160000056028366,-10.604000091552734 l-47.452999114990234,-49.41999816894531 l137.1320037841797,-142.82000732421875 v293.49798583984375 c0,1.7790000438690186 -1.503000020980835,3.2820000648498535 -3.2820000648498535,3.2820000648498535 z" id="svg_2" fill="#e8a451" fill-opacity="1"/>
    <path d="m389.19000911712646,377.5937194824219 c-2.86899995803833,-2.989000082015991 -7.616000175476074,-3.0829999446868896 -10.604000091552734,-0.2160000056028366 c-2.98799991607666,2.86899995803833 -3.0840001106262207,7.617000102996826 -0.2160000056028366,10.604000091552734 l49.34000015258789,51.387001037597656 c1.4730000495910645,1.534000039100647 3.440000057220459,2.305999994277954 5.410999774932861,2.305999994277954 c1.8680000305175781,0 3.739000082015991,-0.6940000057220459 5.192999839782715,-2.0899999141693115 c2.98799991607666,-2.86899995803833 3.0840001106262207,-7.617000102996826 0.2160000056028366,-10.604000091552734 l-49.34000015258789,-51.387001037597656 z" id="svg_3" fill="#e8a451" fill-opacity="1"/>
    <path d="m146.39598751068115,250.27273559570312 h141.697998046875 c12.920000076293945,0 23.43199920654297,-10.51200008392334 23.43199920654297,-23.43199920654297 c0,-4.61299991607666 -1.340999960899353,-8.920999526977539 -3.6510000228881836,-12.550999641418457 c6.14300012588501,-4.229000091552734 10.177000045776367,-11.309000015258789 10.177000045776367,-19.312999725341797 c0,-4.61299991607666 -1.340000033378601,-8.920000076293945 -3.6510000228881836,-12.550000190734863 c6.14300012588501,-4.229000091552734 10.177000045776367,-11.309000015258789 10.177000045776367,-19.312999725341797 c0,-4.61299991607666 -1.340999960899353,-8.920999526977539 -3.6519999504089355,-12.550999641418457 c6.144000053405762,-4.229000091552734 10.178000450134277,-11.309000015258789 10.178000450134277,-19.312999725341797 c0,-12.920000076293945 -10.51200008392334,-23.43199920654297 -23.43199920654297,-23.43199920654297 l-42.54199981689453,0.0010000000474974513 c7.1020002365112305,-15.211000442504883 10.930999755859375,-33.263999938964844 10.930999755859375,-52.11399841308594 c0,-12.920000076293945 -10.51200008392334,-23.43199920654297 -23.43199920654297,-23.43199920654297 s-23.43199920654297,10.51200008392334 -23.43199920654297,23.43199920654297 c0,28.735000610351562 -23.378000259399414,52.112998962402344 -52.112998962402344,52.112998962402344 h-30.687000274658203 c-4.14300012588501,0 -7.5,3.3570001125335693 -7.5,7.5 v127.45500183105469 c-0.0010000000474974513,4.14300012588501 3.3570001125335693,7.5 7.499000072479248,7.5 zm97.80000305175781,-194.5679931640625 c0,-4.64900016784668 3.7820000648498535,-8.432000160217285 8.432000160217285,-8.432000160217285 s8.432000160217285,3.7820000648498535 8.432000160217285,8.432000160217285 c0,21.038000106811523 -5.296999931335449,40.75600051879883 -14.913999557495117,55.520999908447266 c-1.5019999742507935,2.305999994277954 -1.621000051498413,5.249000072479248 -0.3100000023841858,7.668000221252441 s3.8420000076293945,3.9260001182556152 6.593999862670898,3.9260001182556152 l55.24100112915039,-0.0010000000474974513 c4.64900016784668,0 8.432000160217285,3.7820000648498535 8.432000160217285,8.432000160217285 s-3.7820000648498535,8.432000160217285 -8.432000160217285,8.432000160217285 h-19.576000213623047 c-4.14300012588501,0 -7.5,3.3570001125335693 -7.5,7.5 s3.3570001125335693,7.5 7.5,7.5 h13.050999641418457 c4.64900016784668,0 8.432000160217285,3.7829999923706055 8.432000160217285,8.432999610900879 s-3.7820000648498535,8.432000160217285 -8.432000160217285,8.432000160217285 h-13.050999641418457 c-4.14300012588501,0 -7.5,3.3570001125335693 -7.5,7.5 s3.3570001125335693,7.5 7.5,7.5 h6.525000095367432 c4.64900016784668,0 8.432000160217285,3.7820000648498535 8.432000160217285,8.432000160217285 s-3.7820000648498535,8.432000160217285 -8.432000160217285,8.432000160217285 h-6.525000095367432 c-4.14300012588501,0 -7.5,3.3570001125335693 -7.5,7.5 s3.3570001125335693,7.5 7.5,7.5 c4.64900016784668,0 8.432000160217285,3.7829999923706055 8.432000160217285,8.432999610900879 s-3.7829999923706055,8.428000450134277 -8.432000160217285,8.428000450134277 h-103.51200103759766 v-112.88500213623047 c33.487998962402344,-3.742000102996826 59.612998962402344,-32.2130012512207 59.612998962402344,-66.68299865722656 zm-90.30000305175781,67.11299896240234 h15.687000274658203 v112.45500183105469 h-15.687000274658203 v-112.45500183105469 z" id="svg_4" fill="#e8a451" fill-opacity="1"/>
  </g></g></svg>